<?xml version="1.0" standalone="no"?><!DOCTYPE svg PUBLIC "-//W3C//DTD SVG 1.1//EN"
  "http://www.w3.org/Graphics/SVG/1.1/DTD/svg11.dtd">
<svg t="1633851371450" class="icon" viewBox="0 0 1024 1024" version="1.1" xmlns="http://www.w3.org/2000/svg" p-id="5389"
     xmlns:xlink="http://www.w3.org/1999/xlink" width="200" height="200">
  <defs>
    <style type="text/css"></style>
  </defs>
  <path
    d="M786.577481 267.571353h-376.448675a31.370723 31.370723 0 1 1 0-62.741446h376.448675a31.370723 31.370723 0 1 1 0 62.741446zM786.577481 455.79569h-376.448675a31.370723 31.370723 0 1 1 0-62.741446h376.448675a31.370723 31.370723 0 1 1 0 62.741446zM499.72359 644.020027H410.14972a31.370723 31.370723 0 1 1 0-62.741445h89.57387a31.370723 31.370723 0 1 1 0 62.741445zM794.315592 717.615743h-162.144809a31.370723 31.370723 0 0 1 0-62.741445h162.144809a31.370723 31.370723 0 0 1 0 62.741445z"
    p-id="5390" fill="#ffffff"></path>
  <path
    d="M749.225407 789.099164a31.370723 31.370723 0 0 1-22.189558-53.539367l49.272948-49.293863-49.272948-49.293862a31.370723 31.370723 0 1 1 44.358202-44.358203l71.462507 71.483421a31.370723 31.370723 0 0 1 0 44.358202l-71.462507 71.483421a31.287068 31.287068 0 0 1-22.168644 9.160251z"
    p-id="5391" fill="#ffffff"></path>
  <path
    d="M717.875598 998.049092c-6.629679 0-13.238445-2.112295-18.80152-6.25323l-89.469302-66.986951-110.571341 68.534573a31.454378 31.454378 0 0 1-33.671243-0.418276l-104.652732-68.388176-100.219002 68.074468a31.370723 31.370723 0 1 1-49.00107-25.954044V288.129633s-0.188224-126.925945-0.188224-167.310522c0-24.678302-17.504863-46.198618-41.618492-51.176106a31.349809 31.349809 0 0 1-25.054751-30.722395c0-17.337553 14.03317-33.127483 31.370723-33.127483h92.794598c1.798588 0 3.555349 0.146397 5.249368 0.43919h596.169218c63.410688 0 115.025984 51.594382 115.025984 115.025984v845.420068a31.412551 31.412551 0 0 1-49.398432 25.661252l-96.391774-67.593451-104.443594 68.199951a31.224326 31.224326 0 0 1-17.128414 5.102971z m-357.542586-142.548565c5.981351 0 11.941789 1.694019 17.149328 5.102971l105.447457 68.890108 111.805256-69.28747a31.412551 31.412551 0 0 1 35.323434 1.547622l89.030112 66.673243 103.858006-67.802589a31.287068 31.287068 0 0 1 35.177038 0.585587l64.393637 45.152927V121.258301c0-28.819237-23.444387-52.284538-52.284538-52.284538H268.793242c-1.798588 0-3.555349-0.146397-5.249367-0.43919h-2.175037c8.11456 15.810844 12.652858 33.629415 12.652858 52.284538 0 40.363663 0.188224 167.268695 0.188224 167.268694V907.450445l68.513659-46.554153c5.291195-3.576262 11.460771-5.395764 17.609433-5.395765z"
    p-id="5392" fill="#ffffff"></path>
  <path
    d="M234.808292 347.838576H70.111997a31.370723 31.370723 0 0 1-31.370723-31.370723V121.572008c0-63.431602 51.594382-115.025984 115.025984-115.025984h26.142269a31.370723 31.370723 0 1 1 0 62.741446h-26.142269a52.34728 52.34728 0 0 0-52.284538 52.284538v163.525122h133.325572a31.370723 31.370723 0 1 1 0 62.741446z"
    p-id="5393" fill="#ffffff"></path>
</svg>
