<?xml version="1.0" standalone="no"?><!DOCTYPE svg PUBLIC "-//W3C//DTD SVG 1.1//EN"
  "http://www.w3.org/Graphics/SVG/1.1/DTD/svg11.dtd">
<svg t="1634178904744" class="icon" viewBox="0 0 1024 1024" version="1.1" xmlns="http://www.w3.org/2000/svg" p-id="6886"
     xmlns:xlink="http://www.w3.org/1999/xlink" width="200" height="200">
  <defs>
    <style type="text/css"></style>
  </defs>
  <path
    d="M641.92 620.576c-104.608 0-189.728 85.504-189.728 190.592s85.088 190.592 189.728 190.592 189.728-85.504 189.728-190.592c0-105.088-85.088-190.592-189.728-190.592z m0 346.08c-85.28 0-154.656-69.76-154.656-155.488 0-85.76 69.376-155.52 154.656-155.52s154.656 69.76 154.656 155.52c0 85.728-69.376 155.488-154.656 155.488z"
    fill="#ffffff" p-id="6887"></path>
  <path
    d="M731.328 779.936h-54.56l27.264-45.152s6.208-9.888-4.16-17.696c-8.512-6.048-18.368-3.744-22.208 2.72l-37.504 60.096h-2.144l-39.456-60.096s-9.312-7.296-19.424-1.376c-7.936 4.544-7.808 13.696-5.12 18.4l26.656 43.072h-48.128a7.872 7.872 0 0 0-7.872 7.744v14.08c0 4.224 3.584 7.744 7.872 7.744h71.104v32.352h-71.104a7.872 7.872 0 0 0-7.872 7.744v14.08c0 4.224 3.584 7.744 7.872 7.744h71.104v29.568c0 4.256 3.584 7.744 7.904 7.744h14.368c4.32 0 7.872-3.52 7.872-7.744v-29.568h77.568c4.32 0 7.904-3.52 7.904-7.744v-14.08a7.904 7.904 0 0 0-7.904-7.744h-76.832v-32.352h76.832c4.32 0 7.904-3.52 7.904-7.744v-14.08a7.936 7.936 0 0 0-7.936-7.712zM760.128 385.216c0-18.624-15.104-33.76-33.76-33.76H219.648c-18.656 0-33.76 15.136-33.76 33.76 0 18.656 15.104 30.048 33.76 30.048h506.688c18.688 0 33.792-11.392 33.792-30.048zM219.648 255.584h506.688c18.656 0 33.76-14.048 33.76-32.704 0-18.624-15.104-31.104-33.76-31.104H219.648c-18.656 0-33.76 12.448-33.76 31.104s15.104 32.704 33.76 32.704zM219.84 542.624c-18.624 0-27.776 15.136-27.776 33.792s9.12 31.104 27.776 31.104h161.92c18.624 0 33.76-12.448 33.76-31.104s-15.136-33.792-33.76-33.792H219.84zM967.968 960.704l-125.92-0.096a252.544 252.544 0 0 1-68.032 63.072c36.704 0 132.096 0.032 197.088-0.032 11.232 0 19.04-8.896 19.168-20.16 0.096-11.52 0.032-8.64 0.032-20.16-0.032-15.808-6.752-22.624-22.336-22.624z m-28.896-353.152l-120.032-0.032H787.2a251.52 251.52 0 0 1 61.888 63.744c28.768-0.064 63.904-0.032 90.784-0.064 11.872-0.032 19.648-7.84 19.712-19.808v-23.616c-0.032-12.672-7.648-20.192-20.512-20.224z m32.224-64.32c12.896 0 20.416-7.424 20.512-20.256 0.064-11.936 0.064-11.072 0.032-22.976-0.032-12.704-7.68-20.288-20.544-20.288H595.968c-12.48 0-20.096 7.584-20.16 20-0.064 11.552 0 10.272-0.032 21.792-0.032 14.464 7.072 21.76 21.408 21.76h179.456c63.2-0.032 131.424 0.032 194.656-0.032z m2.336 320.128l-87.808 1.28a250.336 250.336 0 0 1-22.272 61.696c36.416 0 75.392 0.064 110.272-0.096a18.112 18.112 0 0 0 17.92-17.984 450.24 450.24 0 0 0-0.032-27.104 18.144 18.144 0 0 0-18.08-17.792z m50.336-107.296c-0.032-13.184-6.496-20.608-19.712-20.64l-84.704-0.032h-39.616c6.4 20.256 10.048 41.664 11.104 63.744 37.92-0.096 75.808-0.064 113.696-0.064 12.384 0 19.136-6.624 19.2-19.008 0.096-11.872 0.064-12.064 0.032-24z"
    fill="#ffffff" p-id="6888"></path>
  <path
    d="M887.232 55.584C859.264 19.744 821.312 0 780.352 0H147.296c-40.96 0-78.912 19.744-106.88 55.584C14.56 88.64 0.32 132.064 0.032 177.92L0 844.544c0 46.304 14.336 90.208 40.416 123.552 27.968 35.84 65.92 55.584 106.88 55.584h343.072c5.088 0 9.76-1.312 14.016-3.36a251.968 251.968 0 0 1-64.384-62.176H143.616c-19.712 0-38.752-10.496-53.664-29.6-16.8-21.536-26.112-50.656-26.112-82.016V175.488c0-31.328 9.28-60.448 26.112-82.016 14.912-19.072 33.952-29.6 53.664-29.6h639.392c19.712 0 38.752 10.496 53.664 29.6 16.8 21.568 26.112 50.688 26.112 82.016v203.744c0 18.656 12.448 33.76 31.104 33.76 18.624 0 33.76-15.104 33.76-33.76V179.168c0-46.336-14.368-90.24-40.416-123.584z"
    fill="#ffffff" p-id="6889"></path>
</svg>
