<?xml version="1.0" standalone="no"?><!DOCTYPE svg PUBLIC "-//W3C//DTD SVG 1.1//EN"
  "http://www.w3.org/Graphics/SVG/1.1/DTD/svg11.dtd">
<svg t="1634179041946" class="icon" viewBox="0 0 1024 1024" version="1.1" xmlns="http://www.w3.org/2000/svg" p-id="7756"
     xmlns:xlink="http://www.w3.org/1999/xlink" width="200" height="200">
  <defs>
    <style type="text/css"></style>
  </defs>
  <path
    d="M349.866667 836.266667a25.6 25.6 0 1 1 0 51.2h-136.533334a93.866667 93.866667 0 0 1-93.866666-93.866667v-580.266667A93.866667 93.866667 0 0 1 213.333333 119.466667h477.866667A93.866667 93.866667 0 0 1 785.066667 213.333333v170.666667a25.6 25.6 0 1 1-51.2 0v-170.666667c0-23.552-19.114667-42.666667-42.666667-42.666666h-477.866667C189.781333 170.666667 170.666667 189.781333 170.666667 213.333333v580.266667c0 23.552 19.114667 42.666667 42.666666 42.666667h136.533334z m-85.333334-477.866667a25.6 25.6 0 1 1 0-51.2h341.333334a25.6 25.6 0 1 1 0 51.2h-341.333334z m0 153.6a25.6 25.6 0 1 1 0-51.2h136.533334a25.6 25.6 0 1 1 0 51.2h-136.533334z m0 136.533333a25.6 25.6 0 1 1 0-51.2h136.533334a25.6 25.6 0 1 1 0 51.2h-136.533334z"
    p-id="7757" fill="#ffffff"></path>
  <path
    d="M529.066667 502.510933a25.6 25.6 0 0 1 7.202133-17.8176c35.669333-36.864 79.496533-49.152 127.726933-35.601066 25.258667 7.099733 42.8032 16.452267 60.074667 30.242133 3.2768 2.628267 6.382933 5.2224 11.776 9.796267 11.8784 10.0352 18.670933 14.165333 30.549333 17.476266 20.650667 5.802667 47.4112-1.706667 80.7936-25.088a25.6 25.6 0 0 1 40.277334 20.992v172.578134a25.6 25.6 0 0 1-7.202134 17.8176c-35.669333 36.864-79.496533 49.152-127.726933 35.601066-25.258667-7.099733-42.8032-16.452267-60.074667-30.242133a475.9552 475.9552 0 0 1-11.776-9.796267c-11.8784-10.0352-18.670933-14.165333-30.549333-17.476266-20.650667-5.802667-47.4112 1.706667-80.7936 25.088a25.6 25.6 0 0 1-40.277333-20.992v-172.578134z m51.2 128.375467c29.627733-13.175467 57.582933-16.554667 83.729066-9.216 20.0704 5.666133 32.699733 13.312 49.698134 27.648 5.563733 4.7104 8.055467 6.826667 10.683733 8.942933 12.151467 9.693867 23.620267 15.803733 41.984 20.957867 26.8288 7.509333 49.220267 2.833067 69.905067-15.086933v-117.418667c-29.627733 13.175467-57.582933 16.554667-83.729067 9.216-20.0704-5.666133-32.699733-13.312-49.698133-27.648a447.146667 447.146667 0 0 0-10.683734-8.942933c-12.151467-9.693867-23.620267-15.803733-41.984-20.957867-26.8288-7.509333-49.220267-2.833067-69.905066 15.086933v117.418667z"
    p-id="7758" fill="#ffffff"></path>
  <path d="M529.066667 591.394133v273.066667a25.6 25.6 0 1 0 51.2 0v-273.066667a25.6 25.6 0 0 0-51.2 0z" p-id="7759"
        fill="#ffffff"></path>
</svg>
