<?xml version="1.0" standalone="no"?><!DOCTYPE svg PUBLIC "-//W3C//DTD SVG 1.1//EN"
  "http://www.w3.org/Graphics/SVG/1.1/DTD/svg11.dtd">
<svg t="1634179111765" class="icon" viewBox="0 0 1024 1024" version="1.1" xmlns="http://www.w3.org/2000/svg" p-id="7953"
     xmlns:xlink="http://www.w3.org/1999/xlink" width="200" height="200">
  <defs>
    <style type="text/css"></style>
  </defs>
  <path
    d="M850.8416 815.9744l-21.504-51.0464 30.976-45.9264C904.8064 653.0048 921.6 595.968 921.6 512c0-225.792-183.808-409.6-409.6-409.6s-409.6 183.808-409.6 409.6 183.808 409.6 409.6 409.6c76.1344 0 124.8256-12.032 183.5008-45.9264l42.3936-24.4736 45.6704 17.6128c36.4544 14.0288 67.84 23.9104 93.7984 29.696a465.7152 465.7152 0 0 0-26.5216-82.5344z m94.3616-39.7312c32.5632 77.4144 41.3696 148.1216 45.1584 176.4864 3.84 28.6208-5.632 36.7104-14.848 44.544-43.008 20.2752-119.296 9.2672-228.7616-32.9216C669.184 1009.1008 601.9584 1024 512 1024 229.6832 1024 0 794.3168 0 512S229.6832 0 512 0s512 229.6832 512 512c0 102.5024-21.8624 179.8144-78.7968 264.2432zM512 256a51.2 51.2 0 0 1 51.2 51.2v204.8a51.2 51.2 0 0 1-102.4 0V307.2a51.2 51.2 0 0 1 51.2-51.2z m0 460.8a51.2 51.2 0 1 1 0-102.4 51.2 51.2 0 0 1 0 102.4z"
    p-id="7954" fill="#ffffff"></path>
</svg>
