<?xml version="1.0" standalone="no"?><!DOCTYPE svg PUBLIC "-//W3C//DTD SVG 1.1//EN"
  "http://www.w3.org/Graphics/SVG/1.1/DTD/svg11.dtd">
<svg class="icon" width="200px" height="200.00px" viewBox="0 0 1024 1024" version="1.1"
     xmlns="http://www.w3.org/2000/svg">
  <path
    d="M310.5 392.5c-7.1 2-14.7-2.8-16.5-10.6-16.3-69-14.1-141 6.4-208.9 2.3-7.7 10.2-12 17.1-9.6 7 2.4 10.6 10.2 8.5 17.3-19.1 63.4-21.1 130.6-5.9 195 1.6 7.3-2.5 14.8-9.6 16.8z"
    fill="#006837"/>
  <path d="M308.9 615.6m-245.1 0a245.1 245.1 0 1 0 490.2 0 245.1 245.1 0 1 0-490.2 0Z" fill="#B90A27"/>
  <path d="M63.9 591.9a245.1 221.4 0 1 0 490.2 0 245.1 221.4 0 1 0-490.2 0Z" fill="#CE1C32"/>
  <path d="M233.4 423.9m-4.6 0a4.6 4.6 0 1 0 9.2 0 4.6 4.6 0 1 0-9.2 0Z" fill="#333333"/>
  <path d="M168.8 465.4m-4.6 0a4.6 4.6 0 1 0 9.2 0 4.6 4.6 0 1 0-9.2 0Z" fill="#333333"/>
  <path d="M239.2 444.6m-21.9 0a21.9 21.9 0 1 0 43.8 0 21.9 21.9 0 1 0-43.8 0Z" fill="#FFFFFF"/>
  <path d="M386.8 758.4m-4.6 0a4.6 4.6 0 1 0 9.2 0 4.6 4.6 0 1 0-9.2 0Z" fill="#333333"/>
  <path d="M362.6 693.8m-4.6 0a4.6 4.6 0 1 0 9.2 0 4.6 4.6 0 1 0-9.2 0Z" fill="#333333"/>
  <path d="M413.4 661.5m-4.6 0a4.6 4.6 0 1 0 9.2 0 4.6 4.6 0 1 0-9.2 0Z" fill="#333333"/>
  <path d="M446.8 606.1m-4.6 0a4.6 4.6 0 1 0 9.2 0 4.6 4.6 0 1 0-9.2 0Z" fill="#333333"/>
  <path d="M439.9 540.4m-4.6 0a4.6 4.6 0 1 0 9.2 0 4.6 4.6 0 1 0-9.2 0Z" fill="#333333"/>
  <path d="M404.1 482.7m-4.6 0a4.6 4.6 0 1 0 9.2 0 4.6 4.6 0 1 0-9.2 0Z" fill="#333333"/>
  <path d="M344.1 460.8m-4.6 0a4.6 4.6 0 1 0 9.2 0 4.6 4.6 0 1 0-9.2 0Z" fill="#333333"/>
  <path d="M277.2 474.6m-4.6 0a4.6 4.6 0 1 0 9.2 0 4.6 4.6 0 1 0-9.2 0Z" fill="#333333"/>
  <path d="M224.615372 508.030092a4.6 4.6 0 1 0 1.473918-9.081166 4.6 4.6 0 1 0-1.473918 9.081166Z" fill="#333333"/>
  <path d="M175.7 543.8m-4.6 0a4.6 4.6 0 1 0 9.2 0 4.6 4.6 0 1 0-9.2 0Z" fill="#333333"/>
  <path d="M244.9 557.7m-4.6 0a4.6 4.6 0 1 0 9.2 0 4.6 4.6 0 1 0-9.2 0Z" fill="#333333"/>
  <path d="M323.4 512.7m-4.6 0a4.6 4.6 0 1 0 9.2 0 4.6 4.6 0 1 0-9.2 0Z" fill="#333333"/>
  <path d="M315.3 575m-4.6 0a4.6 4.6 0 1 0 9.2 0 4.6 4.6 0 1 0-9.2 0Z" fill="#333333"/>
  <path d="M384.5 596.9m-4.6 0a4.6 4.6 0 1 0 9.2 0 4.6 4.6 0 1 0-9.2 0Z" fill="#333333"/>
  <path d="M319.9 629.2m-4.6 0a4.6 4.6 0 1 0 9.2 0 4.6 4.6 0 1 0-9.2 0Z" fill="#333333"/>
  <path d="M250.7 606.1m-4.6 0a4.6 4.6 0 1 0 9.2 0 4.6 4.6 0 1 0-9.2 0Z" fill="#333333"/>
  <path d="M179.2 615.4m-4.6 0a4.6 4.6 0 1 0 9.2 0 4.6 4.6 0 1 0-9.2 0Z" fill="#333333"/>
  <path d="M218.4 660.4m-4.6 0a4.6 4.6 0 1 0 9.2 0 4.6 4.6 0 1 0-9.2 0Z" fill="#333333"/>
  <path d="M339.5 770m-4.6 0a4.6 4.6 0 1 0 9.2 0 4.6 4.6 0 1 0-9.2 0Z" fill="#333333"/>
  <path d="M292.2 771.1m-4.6 0a4.6 4.6 0 1 0 9.2 0 4.6 4.6 0 1 0-9.2 0Z" fill="#333333"/>
  <path d="M212.6 743.4m-4.6 0a4.6 4.6 0 1 0 9.2 0 4.6 4.6 0 1 0-9.2 0Z" fill="#333333"/>
  <path d="M179.2 716.9m-4.6 0a4.6 4.6 0 1 0 9.2 0 4.6 4.6 0 1 0-9.2 0Z" fill="#333333"/>
  <path d="M148 682.3m-4.6 0a4.6 4.6 0 1 0 9.2 0 4.6 4.6 0 1 0-9.2 0Z" fill="#333333"/>
  <path d="M123.8 647.7m-4.6 0a4.6 4.6 0 1 0 9.2 0 4.6 4.6 0 1 0-9.2 0Z" fill="#333333"/>
  <path d="M107.6 609.6m-4.6 0a4.6 4.6 0 1 0 9.2 0 4.6 4.6 0 1 0-9.2 0Z" fill="#333333"/>
  <path d="M101.9 564.6m-4.6 0a4.6 4.6 0 1 0 9.2 0 4.6 4.6 0 1 0-9.2 0Z" fill="#333333"/>
  <path d="M127.2 511.5m-4.6 0a4.6 4.6 0 1 0 9.2 0 4.6 4.6 0 1 0-9.2 0Z" fill="#333333"/>
  <path d="M428.3 738.8m-4.6 0a4.6 4.6 0 1 0 9.2 0 4.6 4.6 0 1 0-9.2 0Z" fill="#333333"/>
  <path d="M473.3 703m-4.6 0a4.6 4.6 0 1 0 9.2 0 4.6 4.6 0 1 0-9.2 0Z" fill="#333333"/>
  <path d="M501 653.4m-4.6 0a4.6 4.6 0 1 0 9.2 0 4.6 4.6 0 1 0-9.2 0Z" fill="#333333"/>
  <path d="M503.668132 589.464724a4.6 4.6 0 1 0 8.499692-3.520687 4.6 4.6 0 1 0-8.499692 3.520687Z" fill="#333333"/>
  <path d="M495.3 524.2m-4.6 0a4.6 4.6 0 1 0 9.2 0 4.6 4.6 0 1 0-9.2 0Z" fill="#333333"/>
  <path d="M460.7 468.9m-4.6 0a4.6 4.6 0 1 0 9.2 0 4.6 4.6 0 1 0-9.2 0Z" fill="#333333"/>
  <path d="M423.7 430.8m-4.6 0a4.6 4.6 0 1 0 9.2 0 4.6 4.6 0 1 0-9.2 0Z" fill="#333333"/>
  <path d="M361.4 407.7m-4.6 0a4.6 4.6 0 1 0 9.2 0 4.6 4.6 0 1 0-9.2 0Z" fill="#333333"/>
  <path d="M299.1 412.3m-4.6 0a4.6 4.6 0 1 0 9.2 0 4.6 4.6 0 1 0-9.2 0Z" fill="#333333"/>
  <path
    d="M266.2 639.9l13.3 14.7c3.9 4.3 10.1 5.6 15.4 3.2l18.1-8.1c11.8-5.3 23.6 7.7 17.1 18.9l-9.9 17.2c-2.9 5-2.2 11.4 1.7 15.7l13.3 14.7c8.7 9.6 0 24.8-12.7 22.1l-19.4-4.1c-5.7-1.2-11.5 1.4-14.4 6.4l-9.9 17.2c-6.5 11.3-23.6 7.7-25-5.3l-2.1-19.7c-0.6-5.8-4.9-10.5-10.6-11.7l-19.4-4.1c-12.7-2.7-14.6-20-2.7-25.4l18.1-8.1c5.3-2.4 8.5-7.9 7.9-13.7l-2.1-19.7c-1.3-12.7 14.6-19.8 23.3-10.2z"
    fill="#DC6672"/>
  <path
    d="M267.7 647.7l11.4 12.6c3.3 3.7 8.6 4.8 13.2 2.8l15.5-6.9c10.1-4.5 20.1 6.5 14.6 16.2l-8.4 14.7c-2.5 4.3-1.9 9.7 1.4 13.4l11.4 12.6c7.4 8.2 0 21.2-10.9 18.9l-16.6-3.5c-4.9-1-9.8 1.2-12.3 5.5l-8.4 14.7c-5.5 9.6-20.1 6.6-21.3-4.5l-1.8-16.9c-0.5-4.9-4.2-9-9-10l-16.6-3.5c-10.9-2.3-12.4-17.1-2.3-21.7l15.5-6.9c4.5-2 7.2-6.7 6.7-11.7l-1.8-16.9c-1.4-11 12.3-17.1 19.7-8.9z"
    fill="#BC162A"/>
  <path
    d="M269.2 655.5l9.4 10.4c2.8 3.1 7.2 4 10.9 2.3l12.8-5.8c8.4-3.8 16.7 5.4 12.1 13.4l-7 12.2c-2 3.6-1.6 8.1 1.2 11.1l9.4 10.4c6.2 6.8 0 17.6-9 15.7l-13.8-2.9c-4-0.8-8.1 1-10.2 4.6l-7 12.2c-4.6 8-16.7 5.4-17.7-3.7l-1.5-14c-0.4-4.1-3.5-7.4-7.5-8.3l-13.8-2.9c-9-1.9-10.3-14.2-1.9-18l12.8-5.8c3.8-1.7 6-5.6 5.6-9.7l-1.5-14c-0.8-9 10.5-14 16.7-7.2z"
    fill="#8B141A"/>
  <path
    d="M788.6 465.1c3.3 6.6 11.9 9 19 5.1 62-34.3 113.9-84.3 150.5-145.1 4.2-6.9 2.1-15.6-4.4-19.1-6.5-3.5-14.7-1-18.5 5.4-34.1 56.7-82.6 103.4-140.5 135.4-6.6 3.6-9.4 11.8-6.1 18.3z"
    fill="#006837"/>
  <path d="M624.4 616.2m-245.1 0a245.1 245.1 0 1 0 490.2 0 245.1 245.1 0 1 0-490.2 0Z" fill="#B90A27"/>
  <path
    d="M477.916592 749.065786a245.1 221.4 47.791 1 0 327.981549-297.4894 245.1 221.4 47.791 1 0-327.981549 297.4894Z"
    fill="#CE1C32"/>
  <path d="M817.2 543.3m-4.6 0a4.6 4.6 0 1 0 9.2 0 4.6 4.6 0 1 0-9.2 0Z" fill="#333333"/>
  <path d="M829.8 619.1m-4.6 0a4.6 4.6 0 1 0 9.2 0 4.6 4.6 0 1 0-9.2 0Z" fill="#333333"/>
  <path d="M797.9 553m-21.9 0a21.9 21.9 0 1 0 43.8 0 21.9 21.9 0 1 0-43.8 0Z" fill="#FFFFFF"/>
  <path d="M466.3 654.5m-4.6 0a4.6 4.6 0 1 0 9.2 0 4.6 4.6 0 1 0-9.2 0Z" fill="#333333"/>
  <path d="M530.4 629m-4.6 0a4.6 4.6 0 1 0 9.2 0 4.6 4.6 0 1 0-9.2 0Z" fill="#333333"/>
  <path d="M520.2 569.7m-4.6 0a4.6 4.6 0 1 0 9.2 0 4.6 4.6 0 1 0-9.2 0Z" fill="#333333"/>
  <path d="M538.8 507.7m-4.6 0a4.6 4.6 0 1 0 9.2 0 4.6 4.6 0 1 0-9.2 0Z" fill="#333333"/>
  <path d="M592.1 468.7m-4.6 0a4.6 4.6 0 1 0 9.2 0 4.6 4.6 0 1 0-9.2 0Z" fill="#333333"/>
  <path d="M658.9 456.4m-4.6 0a4.6 4.6 0 1 0 9.2 0 4.6 4.6 0 1 0-9.2 0Z" fill="#333333"/>
  <path d="M715.4 486.1m-4.6 0a4.6 4.6 0 1 0 9.2 0 4.6 4.6 0 1 0-9.2 0Z" fill="#333333"/>
  <path d="M750.1 545m-4.6 0a4.6 4.6 0 1 0 9.2 0 4.6 4.6 0 1 0-9.2 0Z" fill="#333333"/>
  <path d="M763.6 602.8m-4.6 0a4.6 4.6 0 1 0 9.2 0 4.6 4.6 0 1 0-9.2 0Z" fill="#333333"/>
  <path d="M767.1 666.7m-4.6 0a4.6 4.6 0 1 0 9.2 0 4.6 4.6 0 1 0-9.2 0Z" fill="#333333"/>
  <path d="M710.3 624.7m-4.6 0a4.6 4.6 0 1 0 9.2 0 4.6 4.6 0 1 0-9.2 0Z" fill="#333333"/>
  <path d="M690.9 536.4m-4.6 0a4.6 4.6 0 1 0 9.2 0 4.6 4.6 0 1 0-9.2 0Z" fill="#333333"/>
  <path d="M650.2 584.2m-4.6 0a4.6 4.6 0 1 0 9.2 0 4.6 4.6 0 1 0-9.2 0Z" fill="#333333"/>
  <path d="M587.5 547.7m-4.6 0a4.6 4.6 0 1 0 9.2 0 4.6 4.6 0 1 0-9.2 0Z" fill="#333333"/>
  <path d="M606.9 617.2m-4.6 0a4.6 4.6 0 1 0 9.2 0 4.6 4.6 0 1 0-9.2 0Z" fill="#333333"/>
  <path d="M670.5 653m-4.6 0a4.6 4.6 0 1 0 9.2 0 4.6 4.6 0 1 0-9.2 0Z" fill="#333333"/>
  <path d="M711.8 712.2m-4.6 0a4.6 4.6 0 1 0 9.2 0 4.6 4.6 0 1 0-9.2 0Z" fill="#333333"/>
  <path d="M652.1 713.3m-4.6 0a4.6 4.6 0 1 0 9.2 0 4.6 4.6 0 1 0-9.2 0Z" fill="#333333"/>
  <path d="M489.5 697.2m-4.6 0a4.6 4.6 0 1 0 9.2 0 4.6 4.6 0 1 0-9.2 0Z" fill="#333333"/>
  <path d="M520.5 733.1m-4.6 0a4.6 4.6 0 1 0 9.2 0 4.6 4.6 0 1 0-9.2 0Z" fill="#333333"/>
  <path d="M594.4 773.4m-4.6 0a4.6 4.6 0 1 0 9.2 0 4.6 4.6 0 1 0-9.2 0Z" fill="#333333"/>
  <path d="M636.6 780.4m-4.6 0a4.6 4.6 0 1 0 9.2 0 4.6 4.6 0 1 0-9.2 0Z" fill="#333333"/>
  <path d="M683.1 780.2m-4.6 0a4.6 4.6 0 1 0 9.2 0 4.6 4.6 0 1 0-9.2 0Z" fill="#333333"/>
  <path d="M725 774.9m-4.6 0a4.6 4.6 0 1 0 9.2 0 4.6 4.6 0 1 0-9.2 0Z" fill="#333333"/>
  <path d="M764.1 761.3m-4.6 0a4.6 4.6 0 1 0 9.2 0 4.6 4.6 0 1 0-9.2 0Z" fill="#333333"/>
  <path d="M801.3 735.3m-4.6 0a4.6 4.6 0 1 0 9.2 0 4.6 4.6 0 1 0-9.2 0Z" fill="#333333"/>
  <path d="M823.5 680.9m-4.6 0a4.6 4.6 0 1 0 9.2 0 4.6 4.6 0 1 0-9.2 0Z" fill="#333333"/>
  <path d="M452.9 610.5m-4.6 0a4.6 4.6 0 1 0 9.2 0 4.6 4.6 0 1 0-9.2 0Z" fill="#333333"/>
  <path d="M449.2 553.2m-4.6 0a4.6 4.6 0 1 0 9.2 0 4.6 4.6 0 1 0-9.2 0Z" fill="#333333"/>
  <path d="M467.3 499.3m-4.6 0a4.6 4.6 0 1 0 9.2 0 4.6 4.6 0 1 0-9.2 0Z" fill="#333333"/>
  <path d="M510.619594 454.543515a4.6 4.6 0 1 0 1.473918-9.081165 4.6 4.6 0 1 0-1.473918 9.081165Z" fill="#333333"/>
  <path d="M566.9 416.8m-4.6 0a4.6 4.6 0 1 0 9.2 0 4.6 4.6 0 1 0-9.2 0Z" fill="#333333"/>
  <path d="M631.2 405.2m-4.6 0a4.6 4.6 0 1 0 9.2 0 4.6 4.6 0 1 0-9.2 0Z" fill="#333333"/>
  <path d="M684.2 407m-4.6 0a4.6 4.6 0 1 0 9.2 0 4.6 4.6 0 1 0-9.2 0Z" fill="#333333"/>
  <path d="M743.1 437.6m-4.6 0a4.6 4.6 0 1 0 9.2 0 4.6 4.6 0 1 0-9.2 0Z" fill="#333333"/>
  <path d="M781.5 486.9m-4.6 0a4.6 4.6 0 1 0 9.2 0 4.6 4.6 0 1 0-9.2 0Z" fill="#333333"/>
  <path
    d="M635.1 664.2h-19.8c-5.8 0-11-3.7-12.8-9.2l-6.2-18.9c-4-12.3-21.5-12.3-25.5 0l-6.1 18.9c-1.8 5.5-6.9 9.3-12.7 9.3h-19.8c-13 0-18.4 16.6-7.8 24.3l16.1 11.6c4.7 3.4 6.7 9.5 4.9 15l-6.1 18.9c-4 12.4 10.2 22.6 20.6 15l16-11.7c4.7-3.4 11.1-3.4 15.8 0l16.1 11.6c10.5 7.6 24.6-2.7 20.6-15l-6.2-18.9c-1.8-5.5 0.2-11.6 4.9-15l16-11.7c10.4-7.7 5-24.3-8-24.2z"
    fill="#DC6672"/>
  <path
    d="M628.3 668.3h-17c-5 0-9.4-3.2-10.9-7.9l-5.3-16.1c-3.4-10.5-18.4-10.5-21.8 0l-5.2 16.1c-1.5 4.7-5.9 7.9-10.9 7.9h-17c-11.1 0-15.7 14.2-6.7 20.7l13.7 9.9c4 2.9 5.7 8.1 4.2 12.8l-5.2 16.1c-3.4 10.6 8.7 19.3 17.6 12.8l13.7-10c4-2.9 9.4-2.9 13.5 0l13.7 9.9c9 6.5 21-2.3 17.6-12.8l-5.3-16.1c-1.5-4.7 0.1-9.9 4.1-12.8l13.7-10c9.3-6.3 4.6-20.5-6.5-20.5z"
    fill="#BC162A"/>
  <path
    d="M621.6 672.5h-14.1c-4.1 0-7.8-2.6-9.1-6.6l-4.4-13.4c-2.9-8.8-15.3-8.7-18.1 0l-4.3 13.4c-1.3 3.9-4.9 6.6-9 6.6h-14.1c-9.2 0-13 11.8-5.6 17.2l11.4 8.3c3.3 2.4 4.7 6.7 3.5 10.6l-4.3 13.4c-2.8 8.8 7.2 16 14.6 10.6l11.4-8.3c3.3-2.4 7.8-2.4 11.2 0l11.4 8.3c7.5 5.4 17.5-1.9 14.6-10.6l-4.4-13.4c-1.3-3.9 0.1-8.2 3.4-10.6l11.4-8.3c7.5-5.5 3.7-17.2-5.5-17.2z"
    fill="#8B141A"/>
</svg>
