<?xml version="1.0" standalone="no"?><!DOCTYPE svg PUBLIC "-//W3C//DTD SVG 1.1//EN"
  "http://www.w3.org/Graphics/SVG/1.1/DTD/svg11.dtd">
<svg t="1633850784173" class="icon" viewBox="0 0 1024 1024" version="1.1" xmlns="http://www.w3.org/2000/svg" p-id="3112"
     xmlns:xlink="http://www.w3.org/1999/xlink" width="200" height="200">
  <defs>
    <style type="text/css"></style>
  </defs>
  <path
    d="M955.078125 1023.999935H760.591867v-1.105553a32.360183 32.360183 0 0 1 0-62.821416v-2.991495h140.834428a53.547778 53.547778 0 0 0 53.65183-53.456733v-227.48376a53.547778 53.547778 0 0 0-53.65183-53.456732h-187.781406a53.554281 53.554281 0 0 0-53.65183 53.456732v193.992011h-2.256628a32.353679 32.353679 0 0 1-64.577294 0h-0.227614V622.684246a66.983497 66.983497 0 0 1 67.061536-66.918465h295.085066a66.983497 66.983497 0 0 1 67.068039 66.918465v334.397225a66.983497 66.983497 0 0 1-67.068039 66.918464z m-262.295668-519.739911a32.516261 32.516261 0 1 1-45.984496-45.977992l-0.500751-0.52026a227.490263 227.490263 0 1 0-170.424225 62.756383v2.731366a32.516261 32.516261 0 0 1 0 65.032521 33.485245 33.485245 0 0 1-9.260631-1.495748 422.509788 422.509788 0 0 0-399.865464 408.859462h-0.981991a32.516261 32.516261 0 0 1-63.731871 0H1.701362c0-0.715358 0.091046-1.430715 0.110555-2.146074a31.865935 31.865935 0 0 1-0.435718-4.357178 32.386196 32.386196 0 0 1 1.060031-7.868936 487.880478 487.880478 0 0 1 336.673362-436.69338 292.880463 292.880463 0 1 1 357.932495-45.65283 31.371688 31.371688 0 0 1-4.25963 5.332666z m36.717361 194.577304h162.581303a32.516261 32.516261 0 0 1 0 65.032522h-162.581303a32.516261 32.516261 0 0 1 0-65.032522z m0 110.555287h162.581303a32.516261 32.516261 0 0 1 0 65.032521h-162.581303a32.516261 32.516261 0 0 1 0-65.032521z"
    p-id="3113" fill="#ffffff"></path>
</svg>
