<?xml version="1.0" standalone="no"?><!DOCTYPE svg PUBLIC "-//W3C//DTD SVG 1.1//EN"
  "http://www.w3.org/Graphics/SVG/1.1/DTD/svg11.dtd">
<svg t="1634179544332" class="icon" viewBox="0 0 1024 1024" version="1.1" xmlns="http://www.w3.org/2000/svg" p-id="8849"
     xmlns:xlink="http://www.w3.org/1999/xlink" width="200" height="200">
  <defs>
    <style type="text/css"></style>
  </defs>
  <path
    d="M998.4 628.053333c-15.36-20.48-49.493333-35.84-117.76 5.12 6.826667-29.013333-17.066667-46.08-42.666667-46.08-23.893333 0-51.2 6.826667-73.386666 29.013334-30.72-42.666667-63.146667-37.546667-126.293334 3.413333-23.893333 15.36-46.08 27.306667-61.44 37.546667-3.413333 1.706667-6.826667 3.413333-10.24 6.826666 6.826667 1.706667 11.946667 1.706667 18.773334 1.706667 88.746667 0 158.72 0 158.72 78.506667 0 59.733333-68.266667 76.8-104.106667 78.506666h-163.84c-68.266667 0-133.12-71.68-133.12-71.68s78.506667 32.426667 133.12 32.426667h163.84s66.56-3.413333 66.56-39.253333c0-32.426667-18.773333-39.253333-119.466667-39.253334-66.56 0-134.826667-39.253333-134.826666-39.253333s-68.266667-49.493333-88.746667-63.146667c-49.493333-30.72-88.746667-59.733333-174.08-25.6C134.826667 593.92 17.066667 650.24 17.066667 650.24l109.226666 245.76 56.32-37.546667c30.72-20.48 47.786667-23.893333 87.04-1.706666 39.253333 20.48 157.013333 81.92 186.026667 97.28 90.453333 44.373333 129.706667 5.12 174.08-20.48 37.546667-22.186667 303.786667-201.386667 331.093333-220.16 44.373333-30.72 58.026667-58.026667 37.546667-85.333334z"
    fill="#ffffff" p-id="8850"></path>
  <path
    d="M452.266667 573.44c18.773333 8.533333 37.546667 20.48 52.906666 32.426667 5.12 1.706667 8.533333 5.12 13.653334 5.12 5.12 0 8.533333-1.706667 11.946666-5.12 18.773333-11.946667 34.133333-20.48 52.906667-32.426667 66.56-42.666667 138.24-83.626667 170.666667-165.546667 11.946667-27.306667 18.773333-58.026667 18.773333-93.866666V153.6c0-10.24-6.826667-18.773333-18.773333-23.893333L523.946667 51.2c-5.12-1.706667-8.533333-1.706667-13.653334 0L279.893333 129.706667c-8.533333 5.12-15.36 13.653333-15.36 23.893333v160.426667c0 32.426667 6.826667 64.853333 18.773334 93.866666 32.426667 80.213333 102.4 122.88 168.96 165.546667z m-18.773334-365.226667c6.826667-6.826667 18.773333-6.826667 25.6 0l61.44 47.786667 58.026667-47.786667c6.826667-6.826667 18.773333-6.826667 25.6 0 6.826667 6.826667 6.826667 18.773333 0 25.6l-68.266667 58.026667v8.533333h54.613334c10.24 0 18.773333 8.533333 18.773333 18.773334 0 10.24-8.533333 18.773333-18.773333 18.773333h-54.613334v23.893333h54.613334c10.24 0 18.773333 8.533333 18.773333 18.773334 0 10.24-8.533333 18.773333-18.773333 18.773333h-54.613334v42.666667c0 10.24-8.533333 18.773333-18.773333 18.773333-10.24 0-18.773333-8.533333-18.773333-18.773333v-42.666667H443.733333c-10.24 0-18.773333-8.533333-18.773333-18.773333 0-10.24 8.533333-18.773333 18.773333-18.773334h54.613334v-23.893333H443.733333c-10.24 0-18.773333-8.533333-18.773333-18.773333 0-10.24 8.533333-18.773333 18.773333-18.773334h54.613334v-11.946666l-66.56-54.613334c-6.826667-6.826667-6.826667-18.773333 1.706666-25.6z"
    fill="#ffffff" p-id="8851"></path>
</svg>
