<?xml version="1.0" standalone="no"?><!DOCTYPE svg PUBLIC "-//W3C//DTD SVG 1.1//EN"
  "http://www.w3.org/Graphics/SVG/1.1/DTD/svg11.dtd">
<svg t="1633850938635" class="icon" viewBox="0 0 1024 1024" version="1.1" xmlns="http://www.w3.org/2000/svg" p-id="3979"
     xmlns:xlink="http://www.w3.org/1999/xlink" width="200" height="200">
  <defs>
    <style type="text/css"></style>
  </defs>
  <path
    d="M633.904762 807.984762H345.721905c-23.161905 0-43.398095 0-43.398095 24.380952s20.23619 29.988571 43.398095 29.988572H633.904762c23.161905 0 43.398095-6.826667 43.398095-30.232381s-21.455238-24.137143-43.398095-24.137143z m17.066667-365.714286a191.390476 191.390476 0 0 0 26.331428-97.523809 187.001905 187.001905 0 1 0-374.003809 0 193.340952 193.340952 0 0 0 26.087619 97.523809 275.748571 275.748571 0 0 0-109.226667 219.428572h1.950476a31.207619 31.207619 0 0 0 58.270476 22.674285 32.914286 32.914286 0 0 0 0-22.674285h2.194286a212.601905 212.601905 0 0 1 87.04-172.129524 183.832381 183.832381 0 0 0 241.371429 0 212.601905 212.601905 0 0 1 87.04 172.129524h2.194285a31.207619 31.207619 0 1 0 58.026667 22.674285 30.47619 30.47619 0 0 0 0-22.674285h2.194286a275.748571 275.748571 0 0 0-110.445715-220.16z m-160.670477 29.988572a127.024762 127.024762 0 1 1 124.586667-127.024762 125.805714 125.805714 0 0 1-125.561905 126.293333z"
    p-id="3980" fill="#ffffff"></path>
  <path
    d="M345.478095 870.4a70.217143 70.217143 0 0 1-34.620952-7.314286 34.377143 34.377143 0 0 1-18.285714-31.695238 29.500952 29.500952 0 0 1 8.289523-22.430476 61.19619 61.19619 0 0 1 44.373334-10.24H633.904762a108.251429 108.251429 0 0 1 33.401905 3.413333 28.281905 28.281905 0 0 1 19.260952 29.013334c0 14.872381-6.826667 39.253333-52.662857 39.253333H345.478095z m0-53.394286c-13.165714 0-26.575238 0-31.451428 4.876191a11.946667 11.946667 0 0 0-2.925715 9.508571 16.579048 16.579048 0 0 0 8.533334 15.847619 54.857143 54.857143 0 0 0 25.6 4.876191H633.904762c34.377143 0 34.377143-15.11619 34.377143-20.967619s-2.681905-9.99619-7.070476-11.702857a88.259048 88.259048 0 0 0-27.306667-2.438096z m382.537143-103.375238a44.129524 44.129524 0 0 1-14.628571-2.681905 39.984762 39.984762 0 0 1-22.186667-21.455238 39.253333 39.253333 0 0 1-2.681905-24.380952v-3.413333A204.55619 204.55619 0 0 0 609.52381 501.51619a193.584762 193.584762 0 0 1-241.859048 0 203.824762 203.824762 0 0 0-77.775238 160.426667v9.264762a43.154286 43.154286 0 0 1-2.681905 16.579048 40.228571 40.228571 0 0 1-77.043809-22.430477v-3.413333A286.72 286.72 0 0 1 316.952381 438.857143a201.874286 201.874286 0 0 1-24.380952-94.354286 195.047619 195.047619 0 1 1 392.289523 0 199.92381 199.92381 0 0 1-24.380952 94.598095 286.232381 286.232381 0 0 1 106.544762 222.841905v9.264762a39.009524 39.009524 0 0 1-2.681905 16.579048 40.71619 40.71619 0 0 1-21.211428 22.430476 42.666667 42.666667 0 0 1-14.872381 3.413333zM707.047619 652.921905h4.388571l-2.681904 12.434285A22.430476 22.430476 0 0 0 707.047619 682.666667a21.942857 21.942857 0 0 0 29.257143 11.215238 20.967619 20.967619 0 0 0 11.459048-12.190476 19.992381 19.992381 0 0 0 0-15.847619l-4.876191-12.434286h6.339048a268.190476 268.190476 0 0 0-105.569524-204.068572l-6.582857-5.12 4.144762-6.826666a182.125714 182.125714 0 0 0-151.893334-274.285715 179.931429 179.931429 0 0 0-177.980952 181.394286 185.295238 185.295238 0 0 0 24.380952 92.16l4.144762 6.826667-6.582857 4.87619a268.190476 268.190476 0 0 0-105.325714 204.556191h4.144762l-2.925715 12.434285a22.186667 22.186667 0 1 0 41.20381 0l-4.876191-12.434285h6.582858a222.841905 222.841905 0 0 1 90.697142-170.666667l5.851429-4.144762 5.607619 4.632381a175.299048 175.299048 0 0 0 229.180952 0l5.607619-4.632381 5.851429 4.144762a222.841905 222.841905 0 0 1 92.16 170.666667z m-216.746667-172.373334a132.632381 132.632381 0 0 1-94.841904-39.740952 138.48381 138.48381 0 0 1 0-192.609524 132.632381 132.632381 0 0 1 94.841904-39.740952 136.045714 136.045714 0 0 1 0 272.091428z m0-253.805714a113.371429 113.371429 0 0 0-81.67619 34.377143 119.466667 119.466667 0 0 0 0 166.765714A113.371429 113.371429 0 0 0 489.325714 463.238095a117.76 117.76 0 0 0 0-235.52z"
    p-id="3981" fill="#ffffff"></path>
  <path
    d="M898.681905 1024H121.904762a120.198095 120.198095 0 0 1-119.222857-119.222857V126.049524A120.198095 120.198095 0 0 1 121.904762 6.339048h776.777143a119.954286 119.954286 0 0 1 119.710476 119.710476v778.727619A119.954286 119.954286 0 0 1 898.681905 1024zM121.904762 79.238095a46.811429 46.811429 0 0 0-46.32381 46.811429v778.727619A46.811429 46.811429 0 0 0 121.904762 950.857143h776.777143a46.811429 46.811429 0 0 0 46.811428-46.811429V126.049524a46.811429 46.811429 0 0 0-46.811428-46.811429z"
    p-id="3982" fill="#ffffff"></path>
</svg>
