<?xml version="1.0" standalone="no"?><!DOCTYPE svg PUBLIC "-//W3C//DTD SVG 1.1//EN"
  "http://www.w3.org/Graphics/SVG/1.1/DTD/svg11.dtd">
<svg class="icon" width="200px" height="200.00px" viewBox="0 0 1024 1024" version="1.1"
     xmlns="http://www.w3.org/2000/svg">
  <path
    d="M383.8976 514.816S383.0784 317.44 107.264 280.832c-14.3872 107.2128-27.4432 266.7008 113.7152 325.4784 113.7664-1.28 162.9184-91.4944 162.9184-91.4944z"
    fill="#BFE5BD"/>
  <path
    d="M220.9792 606.3616c49.8176-0.5632 87.1936-18.176 113.5616-37.7856-2.8672-2.8672-5.8368-5.7856-8.96-8.7552-101.9904-40.0384-137.2672-131.2256-152.9344-171.2128-8.9088-22.784-35.2256-69.9392-56.2176-106.3936-3.0208-0.4608-6.0416-0.9216-9.1648-1.3312-14.3872 107.1616-27.4432 266.6496 113.7152 325.4784z"
    fill="#A2DD9E"/>
  <path
    d="M220.9792 621.7216c-2.048 0-4.0448-0.4096-5.888-1.1776-159.9488-66.6624-135.0144-252.416-123.0336-341.7088 1.1264-8.3968 8.8576-14.336 17.2544-13.2096 148.3264 19.6608 219.2384 85.7088 252.6208 137.6256 36.6592 57.0368 37.3248 109.312 37.3248 111.5136 0 2.56-0.6144 5.12-1.8944 7.424-2.2016 3.9936-54.8864 98.0992-176.2304 99.5328h-0.1536zM120.5248 298.2912c-15.2064 124.2112-10.3424 243.2512 103.4752 292.608 89.8048-2.4576 134.5024-64.3584 144.384-80.0256-1.8432-27.2384-22.1696-176.3328-247.8592-212.5824z"
    fill="#000F04"/>
  <path
    d="M883.7632 320.2048l-64.7168-87.0912s-303.9232 235.3152-411.8016 241.2032-294.0928 21.0944-294.0928 21.0944l15.6672 37.0688s203.9296 42.9056 403.9168-37.0688 351.0272-175.2064 351.0272-175.2064z"
    fill="#CF9782"/>
  <path
    d="M264.0896 559.5648c-79.36 0-134.0928-11.1616-138.4448-12.032a15.4112 15.4112 0 0 1-11.008-9.0624l-15.6672-37.0688c-1.9456-4.5568-1.536-9.728 1.024-13.9264 2.56-4.1984 6.9632-6.9632 11.8784-7.3728 1.8432-0.1536 187.6992-15.3088 294.5536-21.1456 84.5312-4.608 319.744-173.3632 403.2-237.9776 3.2768-2.5088 7.424-3.6864 11.52-3.072 4.096 0.5632 7.7824 2.7648 10.24 6.0416l64.7168 87.04a15.39584 15.39584 0 0 1-4.1472 22.1696c-1.536 0.9728-154.4704 96.9728-353.4848 176.5376-99.0208 39.5776-198.0928 49.8688-274.3808 49.8688z m-124.3136-40.704c38.7072 6.5536 215.7056 30.9248 387.328-37.6832 161.6384-64.6144 292.352-140.1344 334.336-165.3248l-45.3632-61.0816c-59.3408 45.0048-308.0704 229.4272-407.9104 234.8544-85.0432 4.6592-220.5696 15.2576-272.5376 19.4048l4.1472 9.8304z"
    fill="#000F04"/>
  <path
    d="M483.7376 476.2624s-162.7648-35.2768-127.4368-219.5968c52.9408 31.3856 72.1408 78.4384 72.1408 78.4384s4.3008-215.7056 147.456-264.704c66.6624 82.3808 80.384 174.5408 80.384 174.5408l64.9728-50.9952c0-0.0512 17.408 254.8736-237.5168 282.3168z"
    fill="#BFE5BD"/>
  <path
    d="M656.2816 244.8896s-0.1536-1.0752-0.512-2.9696c-6.8096 9.6256-15.8208 21.5552-28.928 38.912-56.8832 3.584-98.048 23.8592-134.2976 69.9392-30.3616-22.6304-38.9632-87.5008-40.704-139.8784-22.2208 64-23.4496 124.16-23.4496 124.16s-19.2-47.0528-72.1408-78.4384c-35.2768 184.32 127.4368 219.5968 127.4368 219.5968 254.9248-27.4432 237.5168-282.368 237.5168-282.368l-64.9216 51.0464z"
    fill="#A2DD9E"/>
  <path
    d="M483.7376 491.6224c-1.0752 0-2.2016-0.1024-3.2768-0.3584-1.792-0.4096-176.9472-40.7552-139.264-237.5168 0.9216-4.9152 4.1984-9.0624 8.7552-11.1104 4.5568-2.048 9.8304-1.7408 14.1312 0.768 23.552 13.9264 40.9088 30.72 53.248 45.7728 3.584-24.5248 10.0864-56.32 21.9648-88.9344a15.35488 15.35488 0 0 1 19.712-9.1648c7.9872 2.9184 12.0832 11.7248 9.1648 19.712-22.9376 62.8224-24.4224 124.0064-24.4224 124.6208a15.37024 15.37024 0 0 1-12.544 14.7968c-7.1168 1.3312-14.2848-2.56-17.0496-9.3184-0.1536-0.3072-13.2608-31.0784-46.336-57.6-13.8752 137.6256 98.6112 172.6464 116.9408 177.408 185.3952-21.2992 216.2688-169.3184 220.7744-234.9056l-39.7312 31.1808c-4.3008 3.3792-10.0864 4.1984-15.1552 2.2016-5.0688-1.9968-8.704-6.6048-9.5232-11.9808-0.1536-0.8192-13.056-82.7904-70.2976-158.3616-26.1632 11.1104-48.896 29.5936-67.6864 55.04a15.3088 15.3088 0 0 1-21.4528 3.2256 15.36512 15.36512 0 0 1-3.2256-21.504c24.9344-33.792 56.064-57.2416 92.5184-69.7344 6.0928-2.0992 12.8512-0.1536 16.896 4.864 47.9744 59.2896 69.4784 122.8288 78.2848 156.928l45.6192-35.84a15.3344 15.3344 0 0 1 24.7808 11.0592c0.2048 2.7136 15.36 269.9776-251.1872 298.6496-0.512 0.1024-1.0752 0.1024-1.6384 0.1024z"
    fill="#000F04"/>
  <path
    d="M457.728 559.2576s-12.7488-104.9088 60.7744-160.768 119.6032-48.9984 168.6528-58.8288 100.9664-4.9152 149.0432 46.08 103.936 133.3248 92.16 214.7328-36.3008 83.3536-62.7712 96.1024-38.2464 43.1616-56.8832 57.856c-18.6368 14.6944-37.2736 39.2192-85.2992 44.1344-48.0256 4.9152-76.4928 39.2192-134.2976-9.7792-57.856-49.1008-131.5328-189.9008-131.3792-229.5296z"
    fill="#F76C69"/>
  <path
    d="M723.4048 798.5152c48.0256-4.9152 66.6624-29.3888 85.2992-44.1344 18.6368-14.6944 30.4128-45.1072 56.8832-57.856 26.4704-12.7488 50.9952-14.6944 62.7712-96.1024 6.9632-48.0256-9.6768-96.3584-34.304-138.3936 10.752 153.7536-94.1056 180.5312-94.1056 180.5312s-53.5552 64.9728-79.4112 60.0064c-25.9072-4.9664-30.4128-40.3968-59.8016-97.28-60.7744-114.688-200.704-101.9392-200.704-101.9392l-3.0208 32.512c-0.3072 14.2336 0.768 23.3472 0.768 23.3472-0.1536 39.5776 73.5232 180.3776 131.3792 229.4272s86.2208 14.7456 134.2464 9.8816z"
    fill="#EA5959"/>
  <path
    d="M648.3456 830.0544c-19.8144 0-42.2912-6.8096-69.1712-29.5936-58.8288-49.8688-135.8848-192.8704-136.8064-240.2304-1.2288-11.6736-9.8816-115.6608 66.816-173.9264 60.928-46.2848 105.2672-52.0192 144.3328-57.0368 10.5472-1.3312 20.5312-2.6112 30.5664-4.6592 65.3824-13.1072 118.784 3.4816 163.2256 50.5856 14.9504 15.872 28.672 32.5632 40.8064 49.664a15.34464 15.34464 0 1 1-25.0368 17.7664 439.3472 439.3472 0 0 0-38.144-46.3872c-37.0688-39.3216-79.9232-52.5312-134.8096-41.5744-11.1104 2.2016-22.0672 3.6352-32.6656 4.9664-37.0176 4.7616-75.264 9.6768-129.6896 50.9952-65.4336 49.7152-54.9376 145.7664-54.8352 146.7392 0.0512 0.6144 0.1024 1.28 0.1024 1.8944-0.1024 34.7136 71.68 171.6736 125.952 217.6512 35.3792 30.0032 54.528 24.1664 83.4048 15.3088 11.52-3.5328 24.6272-7.5264 39.424-9.0624 34.6112-3.5328 50.8928-17.92 66.6112-31.7952 3.6352-3.2256 7.0656-6.2464 10.7008-9.1136 5.9392-4.6592 11.6736-12.2368 17.7152-20.2752 10.6496-14.08 22.784-30.1056 41.984-39.3216 2.9184-1.3824 5.7856-2.6624 8.6528-3.9424 21.0432-9.3184 36.2496-16.0256 45.568-80.4864 4.608-31.9488-1.9456-67.0208-19.6096-104.3456-3.6352-7.68-0.3584-16.8448 7.3216-20.4288 7.68-3.6352 16.8448-0.3584 20.4288 7.3216 20.2752 42.8544 27.7504 83.8656 22.2208 121.856-10.9056 75.4688-33.2288 90.7776-63.5392 104.192-2.56 1.1264-5.1712 2.2528-7.7824 3.5328-12.544 6.0416-21.4016 17.7664-30.8224 30.208-6.9632 9.216-14.1824 18.7392-23.1936 25.856-2.9696 2.3552-6.0928 5.12-9.4208 8.0384-16.64 14.6944-39.424 34.7648-83.8144 39.3216-11.8272 1.2288-22.8864 4.608-33.536 7.8848-13.1584 4.0448-27.2384 8.3968-42.9568 8.3968z"
    fill="#000F04"/>
  <path
    d="M432.7424 504.6784c-48.9984-12.7488-161.792-27.4432-218.624 68.608s-57.856 121.5488-62.7712 146.0736 0 88.2176 43.1616 113.7152 87.2448 85.2992 120.576 94.1056 40.192 4.9152 61.7472 16.6912c21.5552 11.776 162.7648 19.6096 206.848-85.2992s53.9136-199.0144-21.5552-301.9776C507.2896 495.872 432.7424 504.6784 432.7424 504.6784z"
    fill="#F76C69"/>
  <path
    d="M522.24 815.5136c-54.1696 64.0512-166.1952 53.6576-191.5904 34.4064-45.568-16.128-176.4352-84.5312-160.7168-193.024-3.84 2.6112-6.144 17.1008-9.7792 25.3952-5.2736 16.128-6.656 26.7264-8.7552 37.1712-4.9152 24.5248 0 88.2176 43.1616 113.7152s87.2448 85.2992 120.576 94.1056c33.3312 8.8064 40.192 4.9152 61.7472 16.6912 21.5552 11.776 162.7648 19.6096 206.848-85.2992 44.1344-104.9088 53.9136-199.0144-21.5552-301.9776 0-0.0512 14.2336 194.7648-39.936 258.816z"
    fill="#EA5959"/>
  <path
    d="M422.0416 965.9392c-24.576 0-43.9808-3.8912-52.5312-8.5504-11.008-5.9904-16.64-6.9632-27.904-8.8576-7.5264-1.28-16.9472-2.8672-30.464-6.4512-22.1184-5.8368-45.1072-27.4432-69.4272-50.3296-18.2272-17.1008-37.0688-34.816-55.04-45.4144-51.0976-30.208-56.0128-101.888-50.3808-129.9456 1.6896-8.2944 9.7792-13.7216 18.0736-12.032 8.2944 1.6896 13.7216 9.7792 12.032 18.0736-3.4816 17.5104-1.4336 75.4176 35.8912 97.4848 20.8384 12.3392 40.96 31.232 60.416 49.5104 20.48 19.2512 41.6768 39.168 56.2688 43.008 12.1856 3.2256 20.4288 4.608 27.6992 5.8368 12.288 2.0992 21.9648 3.7376 37.4784 12.1856 7.1168 3.84 56.832 10.8032 106.2912-6.656 38.3488-13.5168 64.9216-37.4784 79.0528-71.0656 49.2032-117.0432 43.6224-200.0384-19.3024-286.3104-48.5888-53.248-112.9984-46.7456-115.7632-46.4384-1.8432 0.2048-3.7888 0.1024-5.632-0.4096-43.008-11.2128-148.7872-27.5968-201.5744 61.5936-18.0224 30.4128-31.3856 55.3984-40.9088 76.3392a15.3088 15.3088 0 0 1-20.3264 7.6288 15.37024 15.37024 0 0 1-7.6288-20.3264c9.984-21.9136 23.8592-47.872 42.4448-79.2576C264.704 457.728 392.2432 478.7712 434.0224 489.1648c15.6672-1.0752 85.8112-2.304 139.5712 57.1904 0.3584 0.4096 0.6656 0.768 0.9728 1.2288 87.7568 119.6544 61.0304 227.3792 23.3472 317.0304-17.4592 41.5232-51.2512 72.0896-97.7408 88.32-27.2896 9.5744-54.9888 13.0048-78.1312 13.0048z"
    fill="#000F04"/>
  <path
    d="M353.024 865.28c-13.056 0-25.2416-2.6624-36.4032-7.9872-34.2528-16.384-45.2096-52.0192-45.6704-53.5552-2.4064-8.1408 2.2016-16.6912 10.3424-19.0976a15.4112 15.4112 0 0 1 19.0976 10.24c0.1536 0.4608 7.936 24.5248 29.7472 34.7648 15.9232 7.4752 36.1472 6.2976 60.2112-3.584 7.8336-3.2256 16.7936 0.512 20.0192 8.3968 3.2256 7.8336-0.512 16.8448-8.3968 20.0192-17.4592 7.2192-33.792 10.8032-48.9472 10.8032z"
    fill="#000F04"/>
  <path
    d="M369.92 911.2064c-2.9696 0-5.9904-0.8704-8.6528-2.7136-1.8944-1.28-18.7904-13.7216-34.1504-45.8752-7.7824-16.2304-40.4992-5.3248-40.8064-5.2224-7.9872 2.816-16.7424-1.3824-19.5584-9.3696a15.3088 15.3088 0 0 1 9.3184-19.5584c21.8112-7.7824 63.0272-12.1856 78.848 20.8896 11.776 24.6784 24.064 33.9456 24.1664 33.9968 6.7584 4.9664 8.3456 14.5408 3.4304 21.3504-3.1232 4.2496-7.8336 6.5024-12.5952 6.5024z"
    fill="#000F04"/>
  <path
    d="M326.5024 901.4784c-6.4512 0-12.4928-4.096-14.592-10.5984-0.9216-2.7648-7.8848-25.8048 1.3312-48.8448-8.5504-38.3488 11.6736-61.7984 12.5952-62.8224a15.32416 15.32416 0 0 1 21.6576-1.3312 15.3344 15.3344 0 0 1 1.4848 21.504c-0.7168 0.9216-11.8784 15.2064-4.7616 39.8848 1.0752 3.84 0.6656 7.936-1.1776 11.4176-7.0656 13.3632-1.9968 30.464-1.9456 30.6688a15.38048 15.38048 0 0 1-14.592 20.1216zM729.2416 718.0288c-12.6464 0-25.8048-3.6352-39.2704-10.9056-7.4752-4.0448-10.24-13.3632-6.2464-20.7872a15.36 15.36 0 0 1 20.7872-6.2464c14.0288 7.5776 26.2144 9.1648 37.3248 4.8128 23.9104-9.3184 36.1984-43.0592 36.3008-43.4176a15.39072 15.39072 0 0 1 19.5584-9.472c8.0384 2.7648 12.2368 11.52 9.472 19.5584-0.6656 1.9456-16.7936 47.4112-54.1696 61.952-7.68 3.0208-15.616 4.5056-23.7568 4.5056z"
    fill="#000F04"/>
  <path
    d="M711.68 765.184c-5.0688 0-9.984-2.5088-12.9536-7.0656-4.608-7.1168-2.5088-16.64 4.608-21.248 45.7728-29.4912 30.3616-78.848 29.696-80.9472-2.6112-8.0384 1.7408-16.6912 9.7792-19.3536a15.3088 15.3088 0 0 1 19.3536 9.6256c8.5504 25.3952 10.752 82.432-42.1888 116.5312-2.6112 1.6384-5.4784 2.4576-8.2944 2.4576z"
    fill="#000F04"/>
</svg>
